# Blender v2.78 (sub 0) OBJ File: ''
# www.blender.org
mtllib InclidedPlane.mtl
o Cube
v 1.000000 -0.000007 -1.000003
v 1.000000 -0.000007 0.999997
v -1.000000 -0.000007 0.999997
v -1.000000 -0.000007 -1.000004
v 0.999999 1.999993 0.999997
v -1.000000 1.999993 0.999996
vn 0.0000 -1.0000 0.0000
vn 0.0000 0.7071 -0.7071
vn -1.0000 -0.0000 -0.0000
vn -0.0000 -0.0000 1.0000
vn 1.0000 0.0000 0.0000
usemtl Material
s off
f 1//1 2//1 3//1 4//1
f 4//2 6//2 5//2 1//2
f 4//3 3//3 6//3
f 2//4 5//4 6//4 3//4
f 2//5 1//5 5//5
